<svg width="35" height="35" viewBox="0 0 35 35" fill="none" xmlns="http://www.w3.org/2000/svg">
<path d="M25.2778 17.5C25.2778 17.944 25.0729 18.3699 24.7083 18.6839C24.3436 18.9979 23.849 19.1743 23.3333 19.1743H11.6667C11.151 19.1743 10.6564 18.9979 10.2917 18.6839C9.92708 18.3699 9.72222 17.944 9.72222 17.5C9.72222 17.056 9.92708 16.6301 10.2917 16.3161C10.6564 16.0021 11.151 15.8257 11.6667 15.8257H23.3333C23.849 15.8257 24.3436 16.0021 24.7083 16.3161C25.0729 16.6301 25.2778 17.056 25.2778 17.5ZM17.5 22.5228H11.6667C11.151 22.5228 10.6564 22.6992 10.2917 23.0132C9.92708 23.3272 9.72222 23.7531 9.72222 24.1971C9.72222 24.6411 9.92708 25.067 10.2917 25.381C10.6564 25.695 11.151 25.8714 11.6667 25.8714H17.5C18.0157 25.8714 18.5103 25.695 18.8749 25.381C19.2396 25.067 19.4444 24.6411 19.4444 24.1971C19.4444 23.7531 19.2396 23.3272 18.8749 23.0132C18.5103 22.6992 18.0157 22.5228 17.5 22.5228ZM35 5.78007V29.2199C35 30.5521 34.3854 31.8296 33.2915 32.7716C32.1975 33.7136 30.7138 34.2428 29.1667 34.2428H5.83333C4.28624 34.2428 2.80251 33.7136 1.70854 32.7716C0.614582 31.8296 0 30.5521 0 29.2199V5.78007C0 4.44793 0.614582 3.17036 1.70854 2.2284C2.80251 1.28643 4.28624 0.757244 5.83333 0.757244H29.1667C30.7138 0.757244 32.1975 1.28643 33.2915 2.2284C34.3854 3.17036 35 4.44793 35 5.78007ZM21.3889 7.45435C21.9046 7.45435 22.3992 7.27795 22.7638 6.96396C23.1285 6.64997 23.3333 6.22412 23.3333 5.78007V4.1058H11.6667V5.78007C11.6667 6.22412 11.8715 6.64997 12.2362 6.96396C12.6008 7.27795 13.0954 7.45435 13.6111 7.45435H21.3889ZM31.1111 5.78007C31.1111 5.33603 30.9063 4.91017 30.5416 4.59618C30.1769 4.28219 29.6824 4.1058 29.1667 4.1058H27.2222V5.78007C27.2222 7.11221 26.6076 8.38978 25.5137 9.33175C24.4197 10.2737 22.936 10.8029 21.3889 10.8029H13.6111C12.064 10.8029 10.5803 10.2737 9.48632 9.33175C8.39236 8.38978 7.77778 7.11221 7.77778 5.78007V4.1058H5.83333C5.31763 4.1058 4.82306 4.28219 4.4584 4.59618C4.09375 4.91017 3.88889 5.33603 3.88889 5.78007V29.2199C3.88889 29.664 4.09375 30.0898 4.4584 30.4038C4.82306 30.7178 5.31763 30.8942 5.83333 30.8942H29.1667C29.6824 30.8942 30.1769 30.7178 30.5416 30.4038C30.9063 30.0898 31.1111 29.664 31.1111 29.2199V5.78007Z" fill="white"/>
</svg>
