<svg width="44" height="39" viewBox="0 0 44 39" fill="none" xmlns="http://www.w3.org/2000/svg">
<path d="M20.0162 34.7375C20.0209 35.3821 19.8003 36.0134 19.3822 36.5513C18.9642 37.0892 18.3676 37.5096 17.668 37.7591C16.9684 38.0085 16.1974 38.0759 15.4528 37.9526C14.7081 37.8293 14.0233 37.521 13.4851 37.0666C12.9469 36.6122 12.5797 36.0323 12.4299 35.4003C12.2802 34.7684 12.3546 34.1129 12.6439 33.5169C12.9331 32.921 13.4241 32.4115 14.0546 32.0529C14.6851 31.6943 15.4267 31.5029 16.1853 31.5029C17.1972 31.5029 18.168 31.843 18.8857 32.449C19.6035 33.055 20.0099 33.8777 20.0162 34.7375V34.7375ZM35.7945 31.5029C35.0368 31.5029 34.2962 31.6938 33.6662 32.0514C33.0362 32.4091 32.5452 32.9174 32.2553 33.5122C31.9653 34.107 31.8894 34.7614 32.0373 35.3928C32.1851 36.0242 32.5499 36.6042 33.0857 37.0594C33.6214 37.5146 34.304 37.8246 35.0471 37.9502C35.7903 38.0758 36.5605 38.0113 37.2605 37.7649C37.9605 37.5186 38.5588 37.1014 38.9797 36.5661C39.4007 36.0309 39.6253 35.4016 39.6253 34.7578C39.6253 33.8945 39.2217 33.0666 38.5033 32.4562C37.7849 31.8458 36.8105 31.5029 35.7945 31.5029ZM43.9111 11.6683L40.0324 24.871C39.6383 26.1866 38.7392 27.353 37.4773 28.1857C36.2154 29.0184 34.6628 29.4698 33.065 29.4686H18.9148C17.3139 29.4687 15.7588 29.0143 14.4965 28.1777C13.2342 27.341 12.337 26.17 11.9475 24.8507L6.20119 5.05679H2.39428C1.75928 5.05679 1.15028 4.84246 0.701269 4.46095C0.252254 4.07945 0 3.56201 0 3.02248C0 2.48294 0.252254 1.96551 0.701269 1.584C1.15028 1.20249 1.75928 0.98816 2.39428 0.98816H8.06873C8.61566 0.974621 9.15156 1.12066 9.58719 1.40197C10.0228 1.68327 10.3319 2.08287 10.463 2.53424L12.3305 9.12542H41.3013H41.5168C41.7389 9.09537 41.9652 9.09537 42.1872 9.12542C42.4977 9.19147 42.7895 9.30974 43.0452 9.47324C43.301 9.63674 43.5155 9.84215 43.6763 10.0773C43.837 10.3125 43.9406 10.5727 43.9809 10.8424C44.0212 11.1122 43.9975 11.3861 43.9111 11.648V11.6683ZM38.524 13.1941H13.5277L16.6642 23.8539C16.7894 24.2849 17.0771 24.6694 17.4834 24.9485C17.8898 25.2277 18.3925 25.3862 18.9148 25.3999H32.9932C33.5401 25.4135 34.076 25.2674 34.5117 24.9861C34.9473 24.7048 35.2564 24.3052 35.3875 23.8539L38.524 13.1941Z" fill="white"/>
</svg>
