<svg width="24" height="24" viewBox="0 0 24 24" fill="none" xmlns="http://www.w3.org/2000/svg">
<path d="M20.1 17.35C20.0941 16.5665 19.7818 15.8163 19.23 15.26L19 15C18.1378 14.1379 16.9692 13.6525 15.75 13.65C15.0554 13.6553 14.3713 13.8195 13.75 14.13L12.9 14.55C12.1765 14.1996 11.5172 13.7297 10.95 13.16C10.3815 12.5751 9.91504 11.8991 9.57001 11.16L9.99001 10.31C10.3057 9.69018 10.4734 9.00559 10.48 8.31001C10.4696 7.70137 10.3388 7.10081 10.0951 6.54299C9.85134 5.98518 9.49955 5.48115 9.06001 5.06001L8.78001 4.79001C8.21794 4.22724 7.45539 3.91071 6.66001 3.91001H5.82001C5.02436 3.91001 4.2613 4.22609 3.69869 4.78869C3.13608 5.3513 2.82001 6.11436 2.82001 6.91001V7.00001C2.85157 8.64045 3.10727 10.2689 3.58001 11.84C4.19477 13.875 5.29265 15.7311 6.78001 17.25V17.25C8.2935 18.7415 10.1466 19.8431 12.18 20.46C13.7499 20.9396 15.3788 21.1988 17.02 21.23H17.09C17.8857 21.23 18.6487 20.9139 19.2113 20.3513C19.7739 19.7887 20.09 19.0257 20.09 18.23V17.39L20.1 17.35ZM17.1 19.21C15.6484 19.1868 14.2074 18.9578 12.82 18.53C11.0944 18.0089 9.51986 17.0793 8.23001 15.82V15.82C6.97344 14.5298 6.04717 12.9552 5.53001 11.23C5.10969 9.8378 4.88421 8.39409 4.86001 6.94001V6.94001C4.86001 6.6748 4.96536 6.42044 5.1529 6.23291C5.34044 6.04537 5.59479 5.94001 5.86001 5.94001H6.70001C6.83161 5.93925 6.96208 5.96448 7.08391 6.01424C7.20575 6.06401 7.31657 6.13733 7.41001 6.23001L7.68001 6.50001C8.14488 6.9836 8.40313 7.62923 8.40001 8.30001C8.40007 8.70023 8.30405 9.09462 8.12001 9.45001L7.49001 10.72C7.43058 10.8503 7.39983 10.9918 7.39983 11.135C7.39983 11.2782 7.43058 11.4197 7.49001 11.55C7.95204 12.6723 8.63179 13.6919 9.49001 14.55V14.55C10.3478 15.4086 11.3675 16.0884 12.49 16.55C12.6203 16.6094 12.7618 16.6402 12.905 16.6402C13.0482 16.6402 13.1897 16.6094 13.32 16.55L14.59 15.91C15.0772 15.662 15.6307 15.5758 16.1702 15.6639C16.7097 15.752 17.2071 16.0099 17.59 16.4L17.86 16.68C18.0448 16.8663 18.1489 17.1177 18.15 17.38V18.21C18.1503 18.3465 18.1225 18.4817 18.0686 18.6071C18.0146 18.7325 17.9355 18.8455 17.8362 18.9392C17.7369 19.0329 17.6195 19.1053 17.4911 19.1518C17.3628 19.1984 17.2263 19.2182 17.09 19.21H17.1ZM12.44 7.40001C12.4029 7.13746 12.4716 6.87092 12.631 6.65901C12.7904 6.4471 13.0275 6.30718 13.29 6.27001C13.4564 6.25701 13.6236 6.25701 13.79 6.27001C14.2207 6.2761 14.6483 6.34344 15.06 6.47001C15.6483 6.65779 16.1831 6.98361 16.6198 7.42027C17.0564 7.85692 17.3822 8.39173 17.57 8.98001C17.699 9.39089 17.7631 9.81938 17.76 10.25C17.7765 10.4163 17.7765 10.5838 17.76 10.75C17.7242 11.0152 17.5845 11.2554 17.3717 11.4176C17.1588 11.5798 16.8902 11.6508 16.625 11.615C16.3598 11.5792 16.1197 11.4395 15.9574 11.2267C15.7952 11.0138 15.7242 10.7452 15.76 10.48C15.76 10.48 15.76 10.38 15.76 10.25C15.765 10.0226 15.7312 9.79604 15.66 9.58001C15.5741 9.29674 15.4196 9.03904 15.2103 8.82972C15.001 8.6204 14.7433 8.46594 14.46 8.38001C14.2431 8.31138 14.0175 8.27433 13.79 8.27001C13.7168 8.26355 13.6432 8.26355 13.57 8.27001C13.4385 8.28824 13.3047 8.2801 13.1764 8.24608C13.0481 8.21206 12.9278 8.15283 12.8227 8.07185C12.7175 7.99087 12.6295 7.88976 12.5638 7.77441C12.4981 7.65906 12.456 7.53179 12.44 7.40001ZM21.61 9.28001V9.42001C21.61 9.68523 21.5047 9.93958 21.3171 10.1271C21.1296 10.3147 20.8752 10.42 20.61 10.42C20.3448 10.42 20.0904 10.3147 19.9029 10.1271C19.7154 9.93958 19.61 9.68523 19.61 9.42001V9.32001C19.6065 8.83921 19.5358 8.36125 19.4 7.90001C19.1823 7.11802 18.7686 6.40452 18.1982 5.82705C17.6277 5.24958 16.9193 4.82724 16.14 4.60001C15.6788 4.4642 15.2008 4.39351 14.72 4.39001H14.63C14.4987 4.3933 14.368 4.37068 14.2454 4.32346C14.1228 4.27624 14.0108 4.20534 13.9156 4.1148C13.8204 4.02426 13.744 3.91586 13.6907 3.79579C13.6374 3.67573 13.6083 3.54634 13.605 3.41501C13.6017 3.28369 13.6243 3.15301 13.6716 3.03043C13.7188 2.90785 13.7897 2.79577 13.8802 2.70059C13.9708 2.60541 14.0792 2.52899 14.1992 2.4757C14.3193 2.42241 14.4487 2.3933 14.58 2.39001H14.72C15.3977 2.39268 16.0714 2.49373 16.72 2.69001C17.8118 3.00799 18.8057 3.59623 19.6097 4.4003C20.4138 5.20436 21.002 6.19826 21.32 7.29001C21.5133 7.93563 21.611 8.60608 21.61 9.28001V9.28001Z" fill="#222221"/>
</svg>
