<svg width="120" height="24" viewBox="0 0 120 24" fill="none" xmlns="http://www.w3.org/2000/svg">
<path d="M22 9.66999C21.9368 9.48708 21.822 9.32642 21.6693 9.20749C21.5167 9.08857 21.3328 9.01649 21.14 8.99999L15.45 8.16999L12.9 2.99999C12.8181 2.83092 12.6902 2.68833 12.5311 2.58857C12.3719 2.4888 12.1878 2.43588 12 2.43588C11.8121 2.43588 11.6281 2.4888 11.4689 2.58857C11.3097 2.68833 11.1819 2.83092 11.1 2.99999L8.54998 8.15999L2.85998 8.99999C2.6749 9.0263 2.5009 9.10396 2.35773 9.22415C2.21455 9.34435 2.10794 9.50227 2.04998 9.67999C1.99692 9.85367 1.99216 10.0385 2.03621 10.2147C2.08025 10.3909 2.17144 10.5517 2.29998 10.68L6.42998 14.68L5.42998 20.36C5.3896 20.5484 5.40453 20.7445 5.47296 20.9246C5.54139 21.1048 5.66041 21.2613 5.81571 21.3754C5.971 21.4895 6.15595 21.5563 6.34831 21.5677C6.54066 21.5792 6.73224 21.5348 6.89998 21.44L12 18.77L17.1 21.44C17.2403 21.5192 17.3988 21.5605 17.56 21.56C17.7718 21.5607 17.9784 21.4942 18.15 21.37C18.3051 21.2589 18.4252 21.1056 18.4961 20.9284C18.567 20.7512 18.5857 20.5575 18.55 20.37L17.55 14.69L21.68 10.69C21.8244 10.5677 21.9311 10.4069 21.9877 10.2263C22.0444 10.0458 22.0486 9.85287 22 9.66999ZM15.85 13.67C15.7342 13.7824 15.6474 13.9211 15.5969 14.0744C15.5464 14.2276 15.5337 14.3908 15.56 14.55L16.28 18.75L12.52 16.75C12.3738 16.6777 12.213 16.6401 12.05 16.6401C11.8869 16.6401 11.7261 16.6777 11.58 16.75L7.81998 18.75L8.53998 14.55C8.56622 14.3908 8.55355 14.2276 8.50305 14.0744C8.45255 13.9211 8.36572 13.7824 8.24998 13.67L5.24998 10.67L9.45998 10.06C9.62198 10.0375 9.77598 9.97553 9.90848 9.87964C10.041 9.78376 10.1479 9.65683 10.22 9.50999L12 5.69999L13.88 9.51999C13.952 9.66683 14.059 9.79376 14.1915 9.88964C14.324 9.98553 14.478 10.0475 14.64 10.07L18.85 10.68L15.85 13.67Z" fill="#D1BD08"/>
<path d="M46 9.66999C45.9368 9.48708 45.822 9.32642 45.6693 9.20749C45.5167 9.08857 45.3328 9.01649 45.14 8.99999L39.45 8.16999L36.9 2.99999C36.8181 2.83092 36.6902 2.68833 36.5311 2.58857C36.3719 2.4888 36.1878 2.43588 36 2.43588C35.8121 2.43588 35.6281 2.4888 35.4689 2.58857C35.3097 2.68833 35.1819 2.83092 35.1 2.99999L32.55 8.15999L26.86 8.99999C26.6749 9.0263 26.5009 9.10396 26.3577 9.22415C26.2146 9.34435 26.1079 9.50227 26.05 9.67999C25.9969 9.85367 25.9922 10.0385 26.0362 10.2147C26.0802 10.3909 26.1714 10.5517 26.3 10.68L30.43 14.68L29.43 20.36C29.3896 20.5484 29.4045 20.7445 29.473 20.9246C29.5414 21.1048 29.6604 21.2613 29.8157 21.3754C29.971 21.4895 30.1559 21.5563 30.3483 21.5677C30.5407 21.5792 30.7322 21.5348 30.9 21.44L36 18.77L41.1 21.44C41.2403 21.5192 41.3988 21.5605 41.56 21.56C41.7718 21.5607 41.9784 21.4942 42.15 21.37C42.3051 21.2589 42.4252 21.1056 42.4961 20.9284C42.567 20.7512 42.5857 20.5575 42.55 20.37L41.55 14.69L45.68 10.69C45.8244 10.5677 45.9311 10.4069 45.9877 10.2263C46.0444 10.0458 46.0486 9.85287 46 9.66999ZM39.85 13.67C39.7342 13.7824 39.6474 13.9211 39.5969 14.0744C39.5464 14.2276 39.5337 14.3908 39.56 14.55L40.28 18.75L36.52 16.75C36.3738 16.6777 36.213 16.6401 36.05 16.6401C35.8869 16.6401 35.7261 16.6777 35.58 16.75L31.82 18.75L32.54 14.55C32.5662 14.3908 32.5535 14.2276 32.503 14.0744C32.4525 13.9211 32.3657 13.7824 32.25 13.67L29.25 10.67L33.46 10.06C33.622 10.0375 33.776 9.97553 33.9085 9.87964C34.041 9.78376 34.1479 9.65683 34.22 9.50999L36 5.69999L37.88 9.51999C37.952 9.66683 38.059 9.79376 38.1915 9.88964C38.324 9.98553 38.478 10.0475 38.64 10.07L42.85 10.68L39.85 13.67Z" fill="#D1BD08"/>
<path d="M70 9.66999C69.9368 9.48708 69.822 9.32642 69.6693 9.20749C69.5167 9.08857 69.3328 9.01649 69.14 8.99999L63.45 8.16999L60.9 2.99999C60.8181 2.83092 60.6902 2.68833 60.5311 2.58857C60.3719 2.4888 60.1878 2.43588 60 2.43588C59.8121 2.43588 59.6281 2.4888 59.4689 2.58857C59.3097 2.68833 59.1819 2.83092 59.1 2.99999L56.55 8.15999L50.86 8.99999C50.6749 9.0263 50.5009 9.10396 50.3577 9.22415C50.2146 9.34435 50.1079 9.50227 50.05 9.67999C49.9969 9.85367 49.9922 10.0385 50.0362 10.2147C50.0802 10.3909 50.1714 10.5517 50.3 10.68L54.43 14.68L53.43 20.36C53.3896 20.5484 53.4045 20.7445 53.473 20.9246C53.5414 21.1048 53.6604 21.2613 53.8157 21.3754C53.971 21.4895 54.1559 21.5563 54.3483 21.5677C54.5407 21.5792 54.7322 21.5348 54.9 21.44L60 18.77L65.1 21.44C65.2403 21.5192 65.3988 21.5605 65.56 21.56C65.7718 21.5607 65.9784 21.4942 66.15 21.37C66.3051 21.2589 66.4252 21.1056 66.4961 20.9284C66.567 20.7512 66.5857 20.5575 66.55 20.37L65.55 14.69L69.68 10.69C69.8244 10.5677 69.9311 10.4069 69.9877 10.2263C70.0444 10.0458 70.0486 9.85287 70 9.66999ZM63.85 13.67C63.7342 13.7824 63.6474 13.9211 63.5969 14.0744C63.5464 14.2276 63.5337 14.3908 63.56 14.55L64.28 18.75L60.52 16.75C60.3738 16.6777 60.213 16.6401 60.05 16.6401C59.8869 16.6401 59.7261 16.6777 59.58 16.75L55.82 18.75L56.54 14.55C56.5662 14.3908 56.5535 14.2276 56.503 14.0744C56.4525 13.9211 56.3657 13.7824 56.25 13.67L53.25 10.67L57.46 10.06C57.622 10.0375 57.776 9.97553 57.9085 9.87964C58.041 9.78376 58.1479 9.65683 58.22 9.50999L60 5.69999L61.88 9.51999C61.952 9.66683 62.059 9.79376 62.1915 9.88964C62.324 9.98553 62.478 10.0475 62.64 10.07L66.85 10.68L63.85 13.67Z" fill="#D1BD08"/>
<path d="M94 9.66999C93.9368 9.48708 93.822 9.32642 93.6693 9.20749C93.5167 9.08857 93.3328 9.01649 93.14 8.99999L87.45 8.16999L84.9 2.99999C84.8181 2.83092 84.6902 2.68833 84.5311 2.58857C84.3719 2.4888 84.1878 2.43588 84 2.43588C83.8121 2.43588 83.6281 2.4888 83.4689 2.58857C83.3097 2.68833 83.1819 2.83092 83.1 2.99999L80.55 8.15999L74.86 8.99999C74.6749 9.0263 74.5009 9.10396 74.3577 9.22415C74.2146 9.34435 74.1079 9.50227 74.05 9.67999C73.9969 9.85367 73.9922 10.0385 74.0362 10.2147C74.0802 10.3909 74.1714 10.5517 74.3 10.68L78.43 14.68L77.43 20.36C77.3896 20.5484 77.4045 20.7445 77.473 20.9246C77.5414 21.1048 77.6604 21.2613 77.8157 21.3754C77.971 21.4895 78.1559 21.5563 78.3483 21.5677C78.5407 21.5792 78.7322 21.5348 78.9 21.44L84 18.77L89.1 21.44C89.2403 21.5192 89.3988 21.5605 89.56 21.56C89.7718 21.5607 89.9784 21.4942 90.15 21.37C90.3051 21.2589 90.4252 21.1056 90.4961 20.9284C90.567 20.7512 90.5857 20.5575 90.55 20.37L89.55 14.69L93.68 10.69C93.8244 10.5677 93.9311 10.4069 93.9877 10.2263C94.0444 10.0458 94.0486 9.85287 94 9.66999ZM87.85 13.67C87.7342 13.7824 87.6474 13.9211 87.5969 14.0744C87.5464 14.2276 87.5337 14.3908 87.56 14.55L88.28 18.75L84.52 16.75C84.3738 16.6777 84.213 16.6401 84.05 16.6401C83.8869 16.6401 83.7261 16.6777 83.58 16.75L79.82 18.75L80.54 14.55C80.5662 14.3908 80.5535 14.2276 80.503 14.0744C80.4525 13.9211 80.3657 13.7824 80.25 13.67L77.25 10.67L81.46 10.06C81.622 10.0375 81.776 9.97553 81.9085 9.87964C82.041 9.78376 82.1479 9.65683 82.22 9.50999L84 5.69999L85.88 9.51999C85.952 9.66683 86.059 9.79376 86.1915 9.88964C86.324 9.98553 86.478 10.0475 86.64 10.07L90.85 10.68L87.85 13.67Z" fill="#D1BD08"/>
<path d="M118 9.66999C117.937 9.48708 117.822 9.32642 117.669 9.20749C117.517 9.08857 117.333 9.01649 117.14 8.99999L111.45 8.16999L108.9 2.99999C108.818 2.83092 108.69 2.68833 108.531 2.58857C108.372 2.4888 108.188 2.43588 108 2.43588C107.812 2.43588 107.628 2.4888 107.469 2.58857C107.31 2.68833 107.182 2.83092 107.1 2.99999L104.55 8.15999L98.86 8.99999C98.6749 9.0263 98.5009 9.10396 98.3577 9.22415C98.2146 9.34435 98.1079 9.50227 98.05 9.67999C97.9969 9.85367 97.9922 10.0385 98.0362 10.2147C98.0802 10.3909 98.1714 10.5517 98.3 10.68L102.43 14.68L101.43 20.36C101.39 20.5484 101.405 20.7445 101.473 20.9246C101.541 21.1048 101.66 21.2613 101.816 21.3754C101.971 21.4895 102.156 21.5563 102.348 21.5677C102.541 21.5792 102.732 21.5348 102.9 21.44L108 18.77L113.1 21.44C113.24 21.5192 113.399 21.5605 113.56 21.56C113.772 21.5607 113.978 21.4942 114.15 21.37C114.305 21.2589 114.425 21.1056 114.496 20.9284C114.567 20.7512 114.586 20.5575 114.55 20.37L113.55 14.69L117.68 10.69C117.824 10.5677 117.931 10.4069 117.988 10.2263C118.044 10.0458 118.049 9.85287 118 9.66999ZM111.85 13.67C111.734 13.7824 111.647 13.9211 111.597 14.0744C111.546 14.2276 111.534 14.3908 111.56 14.55L112.28 18.75L108.52 16.75C108.374 16.6777 108.213 16.6401 108.05 16.6401C107.887 16.6401 107.726 16.6777 107.58 16.75L103.82 18.75L104.54 14.55C104.566 14.3908 104.554 14.2276 104.503 14.0744C104.453 13.9211 104.366 13.7824 104.25 13.67L101.25 10.67L105.46 10.06C105.622 10.0375 105.776 9.97553 105.908 9.87964C106.041 9.78376 106.148 9.65683 106.22 9.50999L108 5.69999L109.88 9.51999C109.952 9.66683 110.059 9.79376 110.191 9.88964C110.324 9.98553 110.478 10.0475 110.64 10.07L114.85 10.68L111.85 13.67Z" fill="#D1BD08"/>
</svg>
